<?xml version="1.0" standalone="no"?>
<!DOCTYPE svg PUBLIC "-//W3C//DTD SVG 20010904//EN"
 "http://www.w3.org/TR/2001/REC-SVG-20010904/DTD/svg10.dtd">
<svg version="1.0" xmlns="http://www.w3.org/2000/svg"
 width="500.000000pt" height="500.000000pt" viewBox="0 0 500.000000 500.000000"
 preserveAspectRatio="xMidYMid meet">
<metadata>
Created by potrace 1.14, written by Peter Selinger 2001-2017
</metadata>
<g transform="translate(0.000000,500.000000) scale(0.100000,-0.100000)"
fill="#000000" stroke="none">
<path d="M1241 4792 c-35 -37 -136 -143 -225 -236 -88 -93 -185 -194 -214
-225 -29 -31 -75 -79 -102 -107 l-50 -52 55 -47 c108 -92 170 -191 206 -333
16 -63 18 -99 15 -212 -5 -141 -13 -208 -31 -280 0 -3 -4 -27 -9 -55 -4 -27
-25 -133 -47 -235 -22 -102 -42 -198 -45 -215 -3 -16 -9 -48 -14 -70 -4 -22
-11 -62 -15 -89 -3 -27 -8 -52 -9 -55 -2 -3 -7 -37 -11 -74 -3 -37 -8 -78 -10
-89 -23 -116 -17 -442 9 -578 8 -42 26 -119 33 -140 2 -8 4 -16 4 -17 0 -2 13
-40 30 -85 92 -249 262 -467 481 -616 41 -29 81 -52 87 -52 6 0 11 -4 11 -9 0
-12 179 -93 370 -168 240 -93 294 -118 394 -181 143 -90 232 -201 330 -409 6
-13 13 -23 16 -23 3 0 23 35 45 78 140 277 254 365 675 527 96 37 185 74 198
81 12 8 22 12 22 9 0 -14 270 138 278 158 2 4 10 7 17 7 7 0 15 3 17 8 2 4 25
25 52 46 58 47 110 99 157 156 19 23 39 48 46 55 39 42 125 194 176 315 25 58
62 197 73 270 1 8 5 31 8 50 21 132 21 338 2 510 -13 117 -17 146 -21 166 -3
12 -7 39 -10 60 -5 36 -38 205 -51 264 -3 14 -7 39 -10 55 -3 17 -7 37 -10 45
-5 13 -38 174 -49 235 -33 184 -39 236 -39 365 0 80 2 156 6 170 3 14 9 39 13
55 22 88 77 177 165 265 l88 88 -36 35 c-21 19 -66 66 -102 104 -36 39 -138
146 -227 239 -88 93 -190 200 -226 238 -75 79 -66 79 -161 -3 -116 -100 -257
-177 -386 -210 -56 -14 -101 -18 -180 -16 -156 5 -278 46 -438 146 l-94 59
-57 -39 c-103 -70 -209 -119 -331 -152 -69 -18 -229 -20 -307 -2 -129 29 -278
111 -417 228 -35 30 -68 55 -73 55 -4 0 -37 -31 -72 -68z"/>
</g>
</svg>
